# xmcd CD database file
#
# Track frame offsets:
#	150
#	12501
#	23461
#	32820
#	44488
#	55707
#	66521
#	75288
#	85564
#	93997
#	104501
#	114448
#	125317
#	132994
#	141759
#	153507
#	164504
#	177182
#
# Disc length: 2511 seconds
#
# Revision: 0
# Processed by: cddbd v1.5.2PL0 Copyright (c) Steve Scherf et al.
# Submitted via: CDex 1.51
#
DISCID=e309cd12
DTITLE=Johnny Cash - Johnny Cash
DYEAR=1900
DGENRE=Country
TTITLE0=I Walk The Line
TTITLE1=Cry Cry Cry!
TTITLE2=Luther Plays The Boogie
TTITLE3=So Doggone Lonesome
TTITLE4=Mean Eyed Cat
TTITLE5=Wide Open Road
TTITLE6=Two Timin' Woman
TTITLE7=There You Go
TTITLE8=Country Boy
TTITLE9=Train Of Love
TTITLE10=Hey Porter
TTITLE11=Belshazar
TTITLE12=If The Good Lords Willing
TTITLE13=Katy Too
TTITLE14=Thanks A Lot
TTITLE15=I Love You Because
TTITLE16=Folsom Prison Blues
TTITLE17=Oh! Lonesome Me
EXTD=
EXTT0=
EXTT1=
EXTT2=
EXTT3=
EXTT4=
EXTT5=
EXTT6=
EXTT7=
EXTT8=
EXTT9=
EXTT10=
EXTT11=
EXTT12=
EXTT13=
EXTT14=
EXTT15=
EXTT16=
EXTT17=
PLAYORDER=
